<?xml version="1.0" standalone="no"?>
<!DOCTYPE svg PUBLIC "-//W3C//DTD SVG 20010904//EN"
 "http://www.w3.org/TR/2001/REC-SVG-20010904/DTD/svg10.dtd">
<svg version="1.0" xmlns="http://www.w3.org/2000/svg"
 width="282.000000pt" height="282.000000pt" viewBox="0 0 282.000000 282.000000"
 preserveAspectRatio="xMidYMid meet">
<metadata>
Created by potrace 1.11, written by Peter Selinger 2001-2013
</metadata>
<g transform="translate(0.000000,282.000000) scale(0.100000,-0.100000)"
fill="#000000" stroke="none">
<path d="M1175 2794 c-491 -83 -915 -435 -1088 -904 -63 -171 -82 -281 -82
-480 0 -128 5 -199 18 -265 58 -286 184 -521 391 -730 203 -204 425 -325 721
-392 114 -26 425 -25 545 1 280 61 515 188 718 388 160 158 298 383 356 580
153 528 7 1072 -387 1441 -193 181 -469 318 -726 361 -115 19 -353 20 -466 0z
m475 -1169 c80 -123 148 -224 152 -224 5 -1 73 99 154 220 91 140 149 218 155
212 8 -8 280 -576 344 -720 l23 -51 -126 -51 c-69 -28 -126 -50 -127 -48 -1 1
-38 90 -81 198 -43 107 -83 197 -89 199 -5 2 -57 -62 -115 -142 -58 -80 -117
-161 -132 -179 -26 -34 -26 -34 -46 -14 -11 11 -70 94 -131 184 -61 90 -113
157 -115 150 -2 -8 -32 -101 -66 -207 -57 -181 -62 -193 -82 -186 -12 3 -67
23 -123 43 l-102 36 133 320 c172 414 204 485 218 485 6 0 76 -101 156 -225z
m-862 185 c135 -23 238 -83 269 -157 22 -54 17 -142 -12 -200 -55 -109 -196
-204 -357 -240 l-78 -18 0 -102 0 -103 -142 0 -143 0 0 421 0 422 200 -6 c110
-3 228 -11 263 -17z"/>
<path d="M610 1514 l0 -147 36 6 c75 12 134 85 134 165 0 67 -63 122 -140 122
l-30 0 0 -146z"/>
</g>
</svg>
