<?xml version="1.0" standalone="no"?>
<!DOCTYPE svg PUBLIC "-//W3C//DTD SVG 20010904//EN"
 "http://www.w3.org/TR/2001/REC-SVG-20010904/DTD/svg10.dtd">
<svg version="1.0" xmlns="http://www.w3.org/2000/svg"
 width="864.000000pt" height="864.000000pt" viewBox="0 0 864.000000 864.000000"
 preserveAspectRatio="xMidYMid meet">
<metadata>
Created by potrace 1.11, written by Peter Selinger 2001-2013
</metadata>
<g transform="translate(0.000000,864.000000) scale(0.100000,-0.100000)"
fill="#000000" stroke="none">
<path d="M0 4320 l0 -2640 695 0 695 0 0 1351 0 1351 87 -79 c48 -43 97 -87
109 -98 23 -22 176 -161 204 -185 9 -8 59 -53 110 -100 51 -47 102 -93 114
-103 18 -15 103 -93 227 -207 15 -14 60 -54 100 -90 40 -36 87 -80 106 -98 18
-18 33 -31 33 -28 0 2 24 -19 54 -48 56 -52 105 -97 189 -174 l48 -43 37 34
c20 19 49 45 63 58 31 28 211 192 250 229 15 14 44 41 65 60 77 69 381 348
420 385 18 17 62 57 99 90 37 33 86 78 109 100 24 22 78 72 121 110 42 39 105
96 138 128 34 31 64 57 67 57 4 0 6 -606 6 -1347 l0 -1348 695 -3 695 -2 0
2055 c-1 1364 2 2056 9 2058 19 6 1270 -1 1295 -7 14 -3 41 -9 60 -12 19 -4
54 -15 78 -25 23 -10 43 -18 45 -17 1 0 22 -9 47 -22 278 -141 442 -451 405
-765 -8 -67 -8 -71 -29 -140 -10 -33 -18 -62 -18 -65 0 -3 -5 -11 -11 -19 -6
-7 -12 -19 -13 -27 -1 -7 -12 -25 -23 -40 -12 -15 -21 -30 -21 -34 0 -10 -29
-46 -95 -115 -83 -88 -229 -176 -335 -201 -19 -4 -37 -8 -40 -9 -48 -13 -225
-18 -584 -19 l-438 -1 0 -580 c1 -319 1 -587 1 -595 1 -14 57 -16 504 -14 532
2 559 4 682 28 11 2 40 7 65 12 50 9 49 9 70 17 8 3 29 8 45 12 58 12 231 78
310 117 295 147 487 308 725 605 6 7 10 17 10 23 0 5 4 10 8 10 5 0 15 12 23
28 8 15 16 29 19 32 37 33 204 381 214 444 1 6 5 17 9 24 5 6 6 12 3 12 -3 0
2 19 10 42 17 50 50 209 61 298 18 143 8 441 -18 573 -6 29 -12 63 -15 77 -3
14 -10 43 -16 65 -6 22 -11 45 -13 50 -1 6 -5 17 -8 25 -3 8 -15 44 -27 80
-32 97 -99 243 -154 335 -34 57 -107 168 -116 175 -3 3 -17 21 -30 40 -52 75
-236 261 -333 336 -73 57 -237 166 -237 158 0 -4 -8 0 -17 8 -18 16 -183 98
-196 98 -4 0 -26 9 -50 19 -41 19 -140 51 -202 67 -16 4 -34 8 -40 10 -27 8
-71 16 -210 41 -22 3 -488 8 -1036 10 -822 3 -999 2 -1010 -9 -8 -8 -43 -40
-79 -72 -36 -33 -108 -98 -160 -146 -52 -48 -107 -98 -121 -111 -15 -13 -71
-64 -124 -114 -54 -49 -108 -99 -120 -110 -33 -29 -193 -176 -225 -205 -15
-14 -69 -63 -120 -110 -51 -47 -105 -96 -120 -110 -15 -14 -67 -61 -115 -105
-48 -44 -100 -91 -115 -105 -184 -169 -225 -207 -240 -220 -32 -28 -193 -175
-219 -200 -14 -14 -73 -68 -131 -120 -58 -52 -132 -121 -165 -152 -33 -32 -65
-58 -71 -58 -6 0 -29 18 -52 40 -23 21 -42 38 -42 36 0 -2 -19 15 -43 38 -24
23 -83 77 -131 121 -128 116 -134 122 -237 215 -51 47 -116 106 -144 132 -28
26 -60 55 -73 66 -12 10 -63 57 -113 103 -105 96 -117 107 -229 209 -45 41
-104 95 -131 120 -27 25 -61 56 -77 70 -47 42 -224 203 -252 230 -23 22 -95
88 -254 231 -27 24 -61 55 -76 69 -58 53 -207 190 -250 229 l-45 41 -312 0
-313 0 0 -2640z"/>
</g>
</svg>
