<?xml version="1.0" encoding="utf-8"?>
<!-- Generator: Adobe Illustrator 16.0.0, SVG Export Plug-In . SVG Version: 6.00 Build 0)  -->
<!DOCTYPE svg PUBLIC "-//W3C//DTD SVG 1.1//EN" "http://www.w3.org/Graphics/SVG/1.1/DTD/svg11.dtd">
<svg version="1.1" id="Layer_1" xmlns="http://www.w3.org/2000/svg" xmlns:xlink="http://www.w3.org/1999/xlink" x="0px" y="0px"
	 width="200px" height="200px" viewBox="0 0 200 200" enable-background="new 0 0 200 200" xml:space="preserve">
<g>
	<path id="big-circle" fill="none" stroke="#000" stroke-width="0.9992" stroke-dasharray="29.9766,29.9766" d="M100,10
		c50,0,90,40,90,90s-40,90-90,90s-90-40-90-90S50,10,100,10z"/>
	<path id="middle-circle" fill="none" stroke="#000" stroke-width="0.9992" stroke-dasharray="29.9766,29.9766" d="M106,170
		c-39,3-72-25-76-64c-3-39,25-72,64-76c39-3,72,25,76,64C173,133,145,166,106,170z"/>
	<path id="small-circle" fill="none" stroke="#000" stroke-width="0.9992" stroke-dasharray="29.9766,29.9766" d="M96,50
		c28-2,52,18,54,45c2,28-18,52-45,54c-28,2-52-18-54-45C49,76,69,52,96,50z"/>
	<text id="thank-you" fill="#000" transform="matrix(1 0 0 1 57.0005 94.9995)" font-family="'Montserrat'" font-size="16.6655">Thank you</text>
	<text id="thank-you_1_" fill="#000" transform="matrix(1 0 0 1 59.0005 115)" font-family="'Montserrat'" font-size="16.6655">for seeing</text>
</g>
</svg>
