<?xml version="1.0" encoding="utf-8"?>
<!-- Generator: Adobe Illustrator 16.0.0, SVG Export Plug-In . SVG Version: 6.00 Build 0)  -->
<!DOCTYPE svg PUBLIC "-//W3C//DTD SVG 1.1//EN" "http://www.w3.org/Graphics/SVG/1.1/DTD/svg11.dtd">
<svg version="1.1" id="Layer_1" xmlns="http://www.w3.org/2000/svg" xmlns:xlink="http://www.w3.org/1999/xlink" x="0px" y="0px"
	 width="54px" height="54px" viewBox="0 0 54 54" enable-background="new 0 0 54 54" xml:space="preserve">
<path fill="#fff" d="M21.576,49.332l0.033-19.297h-5.013c-0.651,0-1.18-0.527-1.183-1.178l-0.024-6.22
	c-0.002-0.655,0.528-1.188,1.183-1.188h5.004v-6.01c0-6.975,4.26-10.772,10.481-10.772h5.105c0.654,0,1.184,0.53,1.184,1.183v5.245
	c0,0.653-0.529,1.183-1.182,1.183l-3.134,0.001c-3.384,0-4.039,1.608-4.039,3.967v5.204h7.435c0.709,0,1.259,0.618,1.176,1.322
	l-0.738,6.22c-0.07,0.596-0.574,1.043-1.174,1.043h-6.665l-0.033,19.297"/>
</svg>
