<?xml version="1.0" encoding="utf-8"?>
<!-- Generator: Adobe Illustrator 16.0.0, SVG Export Plug-In . SVG Version: 6.00 Build 0)  -->
<!DOCTYPE svg PUBLIC "-//W3C//DTD SVG 1.1//EN" "http://www.w3.org/Graphics/SVG/1.1/DTD/svg11.dtd">
<svg version="1.1" id="Layer_1" xmlns="http://www.w3.org/2000/svg" xmlns:xlink="http://www.w3.org/1999/xlink" x="0px" y="0px"
	 width="54px" height="54px" viewBox="0 0 54 54" enable-background="new 0 0 54 54" xml:space="preserve">
<g>
	<path fill="#fff" d="M46.043,25.237l-17.28-17.28c-0.995-0.995-2.608-0.995-3.605,0l-3.588,3.588l4.552,4.552
		c1.059-0.357,2.271-0.118,3.114,0.726c0.848,0.849,1.086,2.072,0.72,3.133l4.387,4.387c1.062-0.366,2.286-0.129,3.134,0.72
		c1.185,1.184,1.185,3.104,0,4.289c-1.186,1.186-3.104,1.186-4.29,0c-0.892-0.893-1.111-2.201-0.66-3.299l-4.091-4.091
		l-0.001,10.767c0.289,0.143,0.562,0.334,0.802,0.573c1.185,1.185,1.185,3.104,0,4.29c-1.186,1.185-3.105,1.185-4.288,0
		c-1.185-1.186-1.185-3.105,0-4.29c0.292-0.292,0.631-0.513,0.992-0.662V21.774c-0.361-0.147-0.699-0.367-0.992-0.662
		c-0.898-0.896-1.113-2.214-0.654-3.316l-4.486-4.488L7.956,25.157c-0.995,0.996-0.995,2.61,0,3.605l17.282,17.281
		c0.995,0.994,2.608,0.994,3.604,0l17.2-17.201C47.039,27.847,47.039,26.231,46.043,25.237"/>
</g>
</svg>
