<?xml version="1.0" encoding="utf-8"?>
<!-- Generator: Adobe Illustrator 16.0.0, SVG Export Plug-In . SVG Version: 6.00 Build 0)  -->
<!DOCTYPE svg PUBLIC "-//W3C//DTD SVG 1.1//EN" "http://www.w3.org/Graphics/SVG/1.1/DTD/svg11.dtd">
<svg version="1.1" id="Layer_1" xmlns="http://www.w3.org/2000/svg" xmlns:xlink="http://www.w3.org/1999/xlink" x="0px" y="0px"
	 width="54px" height="54px" viewBox="0 0 54 54" enable-background="new 0 0 54 54" xml:space="preserve">
<g transform="translate(2.000000, 2.000000)">
	<path fill="#FFFFFF" d="M17.868,23.044v4.428h7.327c-0.295,1.9-2.215,5.574-7.327,5.574c-4.411,0-8.009-3.654-8.009-8.158
		c0-4.503,3.599-8.156,8.009-8.156c2.51,0,4.189,1.07,5.149,1.993l3.506-3.378c-2.251-2.104-5.167-3.377-8.655-3.377
		c-7.142,0-12.918,5.776-12.918,12.918c0,7.142,5.776,12.917,12.918,12.917c7.456,0,12.401-5.24,12.401-12.621
		c0-0.85-0.092-1.496-0.203-2.141H17.868L17.868,23.044z"/>
	<path opacity="0.4" fill="#FFFFFF" enable-background="new    " d="M17.868,23.265h12.198c0.129,0.609,0.203,1.255,0.203,2.03
		v-0.129c0-0.849-0.092-1.495-0.203-2.14H17.868V23.265L17.868,23.265z M17.868,12.193c3.414,0,6.293,1.236,8.508,3.267l0.129-0.129
		c-2.233-2.086-5.149-3.359-8.637-3.359c-7.142,0-12.918,5.776-12.918,12.918V25C5.024,17.932,10.782,12.193,17.868,12.193
		L17.868,12.193z M17.868,33.268c5.112,0,7.031-3.654,7.327-5.572h-0.056c-0.406,1.955-2.344,5.332-7.271,5.332
		c-4.374,0-7.936-3.598-7.991-8.027c0,0.037-0.019,0.074-0.019,0.111C9.859,29.613,13.458,33.268,17.868,33.268L17.868,33.268z"/>
	<path opacity="0.1" fill="#3E2723" enable-background="new    " d="M17.868,16.733c-4.411,0-8.009,3.653-8.009,8.156
		c0,0.037,0.019,0.074,0.019,0.111c0.055-4.448,3.617-8.028,7.991-8.028c2.51,0,4.189,1.07,5.149,1.993l3.506-3.377
		c-0.037-0.037-0.093-0.074-0.129-0.11l-3.377,3.266C22.058,17.822,20.378,16.733,17.868,16.733L17.868,16.733z M17.868,27.473
		v0.223h7.271c0.019-0.074,0.037-0.166,0.056-0.223H17.868L17.868,27.473z"/>
	<path opacity="0.1" fill="#3E2723" enable-background="new    " d="M17.868,37.807C10.782,37.807,5.024,32.086,4.95,25v0.111
		c0,7.141,5.776,12.918,12.918,12.918c7.456,0,12.401-5.242,12.401-12.623v-0.111C30.215,32.621,25.287,37.807,17.868,37.807
		L17.868,37.807z"/>
	<path fill="#FFFFFF" d="M45.55,23.044h-3.69v-3.691h-3.691v3.691h-3.691v3.69h3.691v3.691h3.691v-3.691h3.69"/>
	<path opacity="0.4" fill="#FFFFFF" enable-background="new    " d="M41.859,23.044h3.69v0.221h-3.69V23.044z M38.168,19.353h3.691
		v0.222h-3.691V19.353z M34.477,23.044h3.691v0.221h-3.691V23.044z"/>
	<path opacity="0.1" fill="#3E2723" enable-background="new    " d="M34.477,26.734h3.691v0.223h-3.691V26.734z M41.859,26.734h3.69
		v0.223h-3.69V26.734z M38.168,30.426h3.691v0.221h-3.691V30.426z"/>
</g>
</svg>
