<?xml version="1.0" encoding="utf-8"?>
<!-- Generator: Adobe Illustrator 16.0.0, SVG Export Plug-In . SVG Version: 6.00 Build 0)  -->
<!DOCTYPE svg PUBLIC "-//W3C//DTD SVG 1.1//EN" "http://www.w3.org/Graphics/SVG/1.1/DTD/svg11.dtd">
<svg version="1.1" id="Layer_1" xmlns="http://www.w3.org/2000/svg" xmlns:xlink="http://www.w3.org/1999/xlink" x="0px" y="0px"
	 width="54px" height="54px" viewBox="0 0 54 54" enable-background="new 0 0 54 54" xml:space="preserve">
<path fill="#fff" d="M16.286,46.627c0,0.785-0.636,1.422-1.421,1.422H8.813c-0.785,0-1.421-0.637-1.421-1.422V21.261
	c0-0.785,0.636-1.421,1.421-1.421h6.051c0.785,0,1.421,0.636,1.421,1.421V46.627z M11.839,17.449c-3.175,0-5.749-2.574-5.749-5.749
	s2.574-5.749,5.749-5.749s5.749,2.574,5.749,5.749S15.014,17.449,11.839,17.449z M47.909,46.742c0,0.721-0.585,1.307-1.308,1.307
	h-6.492c-0.723,0-1.308-0.586-1.308-1.307V34.844c0-1.775,0.521-7.777-4.639-7.777c-4.001,0-4.813,4.107-4.977,5.952v13.724
	c0,0.721-0.585,1.307-1.307,1.307H21.6c-0.722,0-1.307-0.586-1.307-1.307V21.146c0-0.722,0.585-1.307,1.307-1.307h6.28
	c0.722,0,1.307,0.585,1.307,1.307v2.213c1.483-2.227,3.689-3.946,8.385-3.946c10.397,0,10.338,9.714,10.338,15.051V46.742
	L47.909,46.742z"/>
</svg>
