<?xml version="1.0" encoding="UTF-8"?>
<!DOCTYPE svg PUBLIC "-//W3C//DTD SVG 1.0//EN" "http://www.w3.org/TR/2001/REC-SVG-20010904/DTD/svg10.dtd">
<!-- Creator: CorelDRAW X6 -->
<svg xmlns="http://www.w3.org/2000/svg" xml:space="preserve" width="22734px" height="14683px" version="1.0" style="shape-rendering:geometricPrecision; text-rendering:geometricPrecision; image-rendering:optimizeQuality; fill-rule:evenodd; clip-rule:evenodd"
viewBox="0 0 17723 11446"
 xmlns:xlink="http://www.w3.org/1999/xlink">
 <defs>
  <style type="text/css">
   <![CDATA[
    .fil16 {fill:#303030;fill-rule:nonzero}
    .fil31 {fill:#383939;fill-rule:nonzero}
    .fil41 {fill:#3C3E40;fill-rule:nonzero}
    .fil22 {fill:#3E4142;fill-rule:nonzero}
    .fil33 {fill:#414547;fill-rule:nonzero}
    .fil46 {fill:#43464A;fill-rule:nonzero}
    .fil30 {fill:#484B50;fill-rule:nonzero}
    .fil39 {fill:#4A5457;fill-rule:nonzero}
    .fil32 {fill:#4D5158;fill-rule:nonzero}
    .fil14 {fill:#4E3427;fill-rule:nonzero}
    .fil17 {fill:#51565E;fill-rule:nonzero}
    .fil35 {fill:#5D3B27;fill-rule:nonzero}
    .fil15 {fill:#76472A;fill-rule:nonzero}
    .fil9 {fill:#807E7C;fill-rule:nonzero}
    .fil38 {fill:#8D8A89;fill-rule:nonzero}
    .fil7 {fill:#918D8C;fill-rule:nonzero}
    .fil34 {fill:#996543;fill-rule:nonzero}
    .fil8 {fill:#9D9A97;fill-rule:nonzero}
    .fil4 {fill:#9D9A99;fill-rule:nonzero}
    .fil5 {fill:#A6A4A2;fill-rule:nonzero}
    .fil42 {fill:#B9B7B5;fill-rule:nonzero}
    .fil40 {fill:#BA5D28;fill-rule:nonzero}
    .fil37 {fill:#BDBAB9;fill-rule:nonzero}
    .fil24 {fill:#BFBCBD;fill-rule:nonzero}
    .fil12 {fill:#C4C1C3;fill-rule:nonzero}
    .fil43 {fill:#C8C6C4;fill-rule:nonzero}
    .fil10 {fill:#C9C7C7;fill-rule:nonzero}
    .fil27 {fill:#D6D1D1;fill-rule:nonzero}
    .fil1 {fill:#D8D6D5;fill-rule:nonzero}
    .fil23 {fill:#D8D6D9;fill-rule:nonzero}
    .fil29 {fill:#DEDBDB;fill-rule:nonzero}
    .fil6 {fill:#E3E1E2;fill-rule:nonzero}
    .fil28 {fill:#E4E4E5;fill-rule:nonzero}
    .fil2 {fill:#E7E7E6;fill-rule:nonzero}
    .fil47 {fill:#E9E9E9;fill-rule:nonzero}
    .fil11 {fill:#EDEDEF;fill-rule:nonzero}
    .fil36 {fill:#EFEFF0;fill-rule:nonzero}
    .fil44 {fill:#F0C588;fill-rule:nonzero}
    .fil3 {fill:#F2F2F3;fill-rule:nonzero}
    .fil19 {fill:#F4BC1F;fill-rule:nonzero}
    .fil25 {fill:#FAF9F9;fill-rule:nonzero}
    .fil18 {fill:#FAFAFA;fill-rule:nonzero}
    .fil21 {fill:#FECF57;fill-rule:nonzero}
    .fil20 {fill:#FEDE97;fill-rule:nonzero}
    .fil45 {fill:#FEF6ED;fill-rule:nonzero}
    .fil13 {fill:#FEFCFD;fill-rule:nonzero}
    .fil0 {fill:#FEFEFE;fill-rule:nonzero}
    .fil26 {fill:#D2D3D3;fill-rule:nonzero}
   ]]>
  </style>
 </defs>
 <g id="Layer_x0020_1">
  <metadata id="CorelCorpID_0Corel-Layer"/>
  <polygon class="fil0" points="4115,9125 4132,9083 3623,8880 3606,8922 "/>
  <polygon class="fil1" points="3621,8879 3604,8922 3631,8932 3648,8890 "/>
  <path class="fil0" d="M3601 8966l48 -120c1,-3 0,-7 -3,-8l-142 -57c-3,-1 -7,0 -8,3l-48 120c-1,3 0,7 3,8l142 57c3,1 7,0 8,-3z"/>
  <path class="fil0" d="M3454 8933l65 -163c7,-17 -2,-37 -19,-44l-286 -114c-17,-7 -37,2 -44,19l-65 163c-7,17 2,37 19,44l286 114c17,7 37,-2 44,-19z"/>
  <path class="fil2" d="M3201 8616c-4,0 -7,1 -11,2 -7,3 -12,8 -15,15l-65 163c-3,7 -3,14 0,21 3,7 8,12 15,15l286 114c14,6 30,-1 36,-15l65 -163c6,-14 -1,-30 -15,-36l-286 -114c-3,-1 -7,-2 -10,-2zm221 345c-5,0 -10,-1 -15,-3l-286 -114c-10,-4 -18,-12 -22,-22 -4,-10 -4,-21 0,-31l65 -163c4,-10 12,-18 22,-22 10,-4 21,-4 31,0l286 114c21,8 31,32 23,53l-65 163c-6,16 -22,26 -38,26z"/>
  <path class="fil3" d="M993 7236l-429 1078c-31,79 7,169 86,200l2122 844c79,31 169,-7 200,-86l429 -1078c31,-79 -7,-169 -86,-200l-2122 -844c-79,-31 -169,7 -200,86z"/>
  <polygon class="fil4" points="1305,7239 794,8525 2668,9271 3180,7984 "/>
  <path class="fil5" d="M3103 8490l-143 359c-4,11 1,24 12,28 11,4 24,-1 28,-12l143 -358c4,-11 -1,-24 -12,-28 -11,-4 -24,1 -28,12z"/>
  <path class="fil6" d="M3148 8829l-106 -69 101 -254c4,-11 -1,-24 -12,-28 -3,-1 -5,-2 -8,-2 -9,0 -17,5 -20,14l-98 246 -99 -64 273 -687 -1874 -745 -122 306 -248 -162 58 -147c17,-44 53,-75 94,-89 16,-5 32,-8 48,-8 19,0 38,4 57,11l1272 506 0 1 4 0 846 336c55,22 91,72 96,127 2,24 -1,49 -10,73l-253 636z"/>
  <polygon class="fil7" points="2906,8671 1183,7545 1305,7239 3180,7984 "/>
  <path class="fil8" d="M3042 8760l-37 -24 98 -246c3,-9 12,-14 20,-14 3,0 5,1 8,2 11,4 17,17 12,28l-101 254z"/>
  <polygon class="fil2" points="3266,8737 3249,8780 3403,8841 3420,8799 "/>
  <path class="fil0" d="M4717 8982c-19,-54 -73,-94 -128,-95 -41,0 -84,18 -135,57 -71,54 -132,123 -191,190 0,0 -1,1 -1,1l81 33c57,23 122,49 186,49 61,-1 120,-28 157,-72 12,-14 21,-30 28,-47 15,-37 17,-79 4,-115zm-2089 922c-23,-69 -90,-124 -171,-142 -91,-20 -177,7 -234,34 -20,9 -40,20 -59,32 0,34 4,66 11,97 23,96 88,177 169,212 87,37 194,15 250,-51 13,-15 23,-33 31,-51 16,-41 18,-89 4,-131zm-840 222c51,-89 127,-160 202,-224 40,-34 83,-69 130,-100 3,-57 16,-117 38,-177 37,-100 96,-192 150,-268 49,-70 107,-147 190,-190 82,-42 187,-50 296,-20 59,16 118,43 174,70 36,17 70,33 103,46 146,57 298,115 455,139 121,18 298,21 452,-68 79,-46 143,-110 207,-180l-100 -40 17 -42 115 46c4,-4 8,-9 12,-13 61,-69 123,-140 198,-196 38,-29 96,-67 163,-66 74,1 144,52 170,125 24,68 9,149 -40,207 -45,54 -116,87 -191,88 -73,1 -143,-27 -204,-52l-96 -39c-68,75 -139,150 -229,201 -165,95 -353,93 -482,74 -162,-24 -316,-84 -465,-141 -35,-14 -71,-31 -106,-47 -55,-26 -112,-52 -167,-67 -98,-26 -192,-20 -264,17 -74,38 -126,108 -174,176 -54,78 -109,163 -144,258 -17,45 -27,89 -33,132 12,-7 24,-13 37,-19 63,-29 160,-59 263,-37 96,21 176,88 204,171 26,76 9,165 -43,226 -69,82 -197,108 -302,63 -94,-40 -168,-133 -195,-243 -6,-25 -10,-51 -11,-78 -35,25 -69,52 -101,79 -72,61 -144,129 -191,212 -51,89 -63,186 -34,264 5,12 10,24 16,37 9,20 19,40 24,63 10,38 7,90 -29,121l-30 -35c21,-18 21,-51 15,-75 -5,-19 -13,-36 -22,-55 -6,-13 -12,-26 -17,-41 -27,-75 -23,-162 10,-246 8,-19 16,-38 27,-56z"/>
  <path class="fil0" d="M2139 11176c-139,-30 -238,-76 -312,-145 -91,-85 -132,-210 -104,-314 -10,7 -19,15 -29,22 -185,133 -400,231 -622,283l-10 -44c216,-51 425,-146 606,-276 60,-43 124,-94 124,-155l45 -2c6,50 -15,83 -36,114 -12,18 -23,36 -31,59 -34,104 20,216 88,280 67,63 159,105 290,133l-10 44z"/>
  <path class="fil9" d="M695 10853c102,-41 192,-56 201,-35 8,21 -68,72 -170,112 -102,41 -192,56 -201,35 -8,-21 68,-72 170,-112z"/>
  <path class="fil0" d="M551 10936c-41,13 -66,86 -24,115 58,39 120,69 134,74l-77 31c-21,8 -30,33 -22,56l2 4c9,22 33,33 54,25l543 -216 -34 -85 -225 90c5,-17 33,-108 41,-132 11,-32 -4,-57 -4,-57 -5,-9 -12,-16 -18,-21 -17,-13 -41,-19 -58,-8 -55,36 -266,110 -312,124z"/>
  <path class="fil10" d="M1347 10874l19 48c4,10 -1,22 -11,27l-254 101 -34 -86 254 -101c11,-4 22,1 27,11z"/>
  <path class="fil9" d="M2640 11055c-102,-41 -192,-56 -201,-35 -8,21 68,72 170,112 102,41 192,56 201,35 8,-21 -68,-72 -170,-112z"/>
  <path class="fil0" d="M2784 11139c41,13 66,86 24,115 -58,39 -120,69 -134,74l77 31c21,8 30,33 22,56l-2 4c-9,22 -33,33 -54,25l-543 -216 34 -85 225 90c-5,-17 -33,-108 -41,-132 -11,-32 4,-57 4,-57 5,-9 12,-16 18,-21 17,-13 41,-19 58,-8 55,36 266,110 312,124z"/>
  <path class="fil10" d="M1988 11077l-19 48c-4,10 1,22 11,27l254 101 34 -86 -254 -101c-10,-4 -22,1 -27,11z"/>
  <path class="fil11" d="M7878 9636c0,62 -5,124 -13,183 -89,611 -615,1080 -1250,1080 -18,0 -36,0 -55,-1 -672,-28 -1209,-583 -1209,-1262 0,-698 566,-1263 1264,-1263 698,0 1263,565 1263,1263z"/>
  <path class="fil0" d="M6615 8337c-717,0 -1300,583 -1300,1299 0,699 546,1269 1244,1298 14,0 27,1 41,1l-37 -37 -38 -38c-641,-46 -1137,-577 -1137,-1224 0,-677 551,-1227 1227,-1227 677,0 1227,550 1227,1227 0,49 -3,99 -9,148l32 32 32 32c1,-7 2,-15 4,-23 9,-63 14,-126 14,-189 0,-717 -583,-1299 -1300,-1299z"/>
  <path class="fil5" d="M7897 9848c-102,622 -649,1088 -1282,1088 -5,0 -10,0 -15,0l-37 -37 -38 -38c12,1 25,2 37,2 18,1 35,1 53,1 605,0 1127,-451 1214,-1049 1,-10 3,-21 4,-31l32 32 32 32z"/>
  <path class="fil12" d="M7833 9784c-1,10 -2,20 -4,31 -87,598 -609,1049 -1214,1049 -18,0 -35,0 -53,-1 -13,0 -25,-1 -37,-2l-1112 -1123 1796 -577 625 623z"/>
  <path class="fil13" d="M5452 9737l439 0c1,0 1,-1 1,-1l0 -178c0,-9 -8,-17 -17,-17l-420 0c-55,0 -100,45 -100,100 0,53 44,97 97,97z"/>
  <path class="fil13" d="M7371 9636c0,418 -339,757 -757,757 -418,0 -757,-339 -757,-757 0,-418 339,-757 757,-757 418,0 757,339 757,757z"/>
  <path class="fil14" d="M7239 9636c0,345 -280,625 -624,625 -196,0 -370,-90 -485,-231 -88,-107 -140,-244 -140,-394 0,-345 280,-625 625,-625 243,0 453,139 557,342 43,85 68,181 68,283z"/>
  <path class="fil15" d="M7239 9636c0,345 -280,625 -624,625 -196,0 -370,-90 -485,-231 -43,-85 -68,-181 -68,-283 0,-345 280,-625 624,-625 196,0 370,90 485,231 43,85 68,181 68,283z"/>
  <path class="fil13" d="M9176 2946l-1549 1346 -2254 -2593 1549 -1346c93,-81 234,-71 315,22l122 140 5 6 115 133 5 6 110 127 5 6 110 127 5 6 110 127 5 6 1369 1575c10,11 18,23 26,36 1,2 3,5 4,7 47,90 28,203 -51,272z"/>
  <path class="fil16" d="M5627 1694c21,24 23,57 3,74 -19,17 -52,10 -73,-14 -21,-24 -23,-57 -3,-74 19,-17 52,-10 73,14z"/>
  <path class="fil16" d="M5863 1966c21,24 23,57 3,74 -19,17 -52,10 -73,-14 -21,-24 -23,-57 -3,-74 19,-17 52,-10 73,14z"/>
  <path class="fil16" d="M6086 2231c21,24 23,57 3,74 -19,17 -52,10 -73,-14 -21,-24 -22,-57 -3,-74 19,-17 52,-10 73,14z"/>
  <path class="fil16" d="M6332 2494c21,24 22,57 3,74 -19,17 -52,10 -73,-14 -21,-24 -22,-57 -3,-74 19,-17 52,-10 73,14z"/>
  <path class="fil16" d="M6559 2755c21,24 23,57 3,74 -19,17 -52,10 -73,-14 -21,-24 -22,-57 -3,-74 19,-17 52,-10 73,14z"/>
  <path class="fil16" d="M6786 3016c21,24 23,57 3,74 -19,17 -52,10 -73,-14 -21,-24 -22,-57 -3,-74 19,-17 52,-10 73,14z"/>
  <path class="fil16" d="M7013 3277c21,24 23,57 3,74 -19,17 -52,10 -73,-14 -21,-24 -23,-57 -3,-74 19,-17 52,-10 73,14z"/>
  <path class="fil16" d="M7260 3561c21,24 23,57 3,74 -19,17 -52,10 -73,-14 -21,-24 -23,-57 -3,-74 19,-17 52,-10 73,14z"/>
  <path class="fil16" d="M7492 3828c21,24 23,57 3,74 -19,17 -52,10 -73,-14 -21,-24 -23,-57 -3,-74 19,-17 52,-10 73,14z"/>
  <path class="fil17" d="M5604 1694l-238 207c-5,4 -12,3 -15,-1 -4,-5 -3,-12 1,-15l238 -207c5,-4 12,-3 15,1 4,5 3,12 -1,15z"/>
  <path class="fil17" d="M5639 1739l-238 207c-5,4 -12,3 -15,-1 -4,-5 -3,-12 1,-15l238 -207c5,-4 12,-3 15,1 4,5 3,12 -1,15z"/>
  <path class="fil17" d="M5839 1965l-238 207c-5,4 -12,3 -15,-1 -4,-5 -3,-12 1,-15l238 -207c5,-4 12,-3 15,1 4,5 3,12 -1,15z"/>
  <path class="fil17" d="M5875 2007l-238 207c-5,4 -12,3 -15,-1 -4,-5 -3,-12 1,-15l238 -207c5,-4 12,-3 15,1 4,5 3,12 -1,15z"/>
  <path class="fil17" d="M6061 2230l-238 207c-5,4 -12,3 -15,-1 -4,-5 -3,-12 1,-15l238 -207c5,-4 12,-3 15,1 4,5 3,12 -1,15z"/>
  <path class="fil17" d="M6097 2272l-238 207c-5,4 -12,3 -15,-1 -4,-5 -3,-12 1,-15l238 -207c5,-4 12,-3 15,1l0 0c4,5 3,12 -1,15z"/>
  <path class="fil17" d="M6308 2493l-238 207c-5,4 -12,3 -15,-1 -4,-5 -3,-12 1,-15l238 -207c5,-4 12,-3 15,1 4,5 3,12 -1,15z"/>
  <path class="fil17" d="M6344 2535l-238 207c-5,4 -12,3 -15,-1l0 0c-4,-5 -3,-12 1,-15l238 -207c5,-4 12,-3 15,1 4,5 3,12 -1,15z"/>
  <path class="fil17" d="M6535 2754l-238 207c-5,4 -12,3 -15,-1 -4,-5 -3,-12 1,-15l238 -207c5,-4 12,-3 15,1 4,5 3,12 -1,15z"/>
  <path class="fil17" d="M6571 2796l-238 207c-5,4 -12,3 -15,-1 -4,-5 -3,-12 1,-15l238 -207c5,-4 12,-3 15,1 4,5 3,12 -1,15z"/>
  <path class="fil17" d="M6762 3015l-238 207c-5,4 -12,3 -15,-1 -4,-5 -3,-12 1,-15l238 -207c5,-4 11,-3 15,1 4,5 3,12 -1,15z"/>
  <path class="fil17" d="M6798 3057l-238 207c-5,4 -11,3 -15,-1 -4,-5 -3,-12 1,-15l238 -207c5,-4 11,-3 15,1 4,5 3,12 -1,15z"/>
  <path class="fil17" d="M6988 3276l-238 207c-5,4 -12,3 -15,-1 -4,-5 -3,-12 1,-15l238 -207c5,-4 12,-3 15,1 4,5 3,12 -1,15z"/>
  <path class="fil17" d="M7025 3318l-238 207c-5,4 -12,3 -15,-1 -4,-5 -3,-12 1,-15l238 -207c5,-4 12,-3 15,1 4,5 3,12 -1,15z"/>
  <path class="fil17" d="M7235 3560l-238 207c-5,4 -12,3 -15,-1 -4,-5 -3,-12 1,-15l238 -207c5,-4 12,-3 15,1 4,5 3,12 -1,15z"/>
  <path class="fil17" d="M7272 3602l-238 207c-5,4 -12,3 -15,-1 -4,-5 -3,-12 1,-15l238 -207c5,-4 12,-3 15,1 4,5 3,12 -1,15z"/>
  <path class="fil17" d="M7467 3827l-238 207c-5,4 -12,3 -15,-1 -4,-5 -3,-12 1,-15l238 -207c5,-4 12,-3 15,1 4,5 3,12 -1,15z"/>
  <path class="fil17" d="M7503 3869l-238 207c-5,4 -12,3 -15,-1 -4,-5 -3,-12 1,-15l238 -207c5,-4 12,-3 15,1 4,5 3,12 -1,15z"/>
  <polygon class="fil16" points="7484,659 5768,2150 5763,2144 7479,653 "/>
  <polygon class="fil16" points="7364,521 5648,2012 5643,2006 7359,515 "/>
  <polygon class="fil16" points="7259,400 5543,1891 5538,1885 7253,394 "/>
  <polygon class="fil16" points="7599,792 5883,2283 5878,2277 7594,786 "/>
  <polygon class="fil16" points="7714,924 5999,2415 5994,2410 7709,918 "/>
  <polygon class="fil16" points="7830,1057 6114,2548 6109,2542 7825,1051 "/>
  <polygon class="fil16" points="7946,1188 6229,2680 6224,2675 7941,1182 "/>
  <polygon class="fil16" points="8062,1320 6344,2813 6339,2807 8057,1315 "/>
  <polygon class="fil16" points="8172,1447 6454,2940 6449,2934 8167,1441 "/>
  <polygon class="fil16" points="8292,1585 6575,3078 6570,3072 8287,1580 "/>
  <polygon class="fil16" points="8402,1712 6685,3205 6680,3199 8397,1706 "/>
  <polygon class="fil16" points="8512,1839 6795,3332 6790,3326 8507,1833 "/>
  <polygon class="fil16" points="8633,1977 6915,3470 6910,3464 8628,1971 "/>
  <polygon class="fil16" points="8758,2121 7041,3614 7036,3608 8753,2116 "/>
  <polygon class="fil16" points="8878,2260 7161,3752 7156,3747 8873,2254 "/>
  <polygon class="fil16" points="8993,2392 7276,3885 7271,3879 8988,2386 "/>
  <polygon class="fil16" points="9113,2530 7396,4023 7391,4017 9108,2525 "/>
  <path class="fil16" d="M9227 2674l-1711 1487 -5 -6 1712 -1488c1,2 3,5 4,7z"/>
  <polygon class="fil18" points="2020,0 3559,1407 1883,3240 344,1833 "/>
  <polygon class="fil18" points="12015,6246 11198,4327 13484,3354 14301,5273 "/>
  <path class="fil19" d="M3132 343l-250 1422c-2,9 9,18 23,20l136 24c14,2 27,-3 28,-11l250 -1422c0,-1 0,-2 0,-4l-186 -33c-1,1 -1,2 -1,3z"/>
  <path class="fil20" d="M2986 1800l55 10c14,2 27,-3 28,-11l250 -1422c0,-1 0,-2 0,-4l-55 -10c0,1 0,2 0,3 0,0 0,1 0,1l-250 1422c-2,9 -14,14 -28,11z"/>
  <path class="fil21" d="M3198 355l-250 1422c-2,9 1,17 6,17l48 8c5,1 10,-5 12,-14l250 -1422c0,0 0,-1 0,-1 0,-1 0,-2 0,-3l-66 -12c0,1 -1,2 -1,4z"/>
  <path class="fil3" d="M3319 373c0,0 -28,-322 -39,-324 -11,-2 -147,291 -147,291l186 33z"/>
  <path class="fil22" d="M3298 160c0,0 -12,-114 -17,-114 -7,0 -55,101 -55,101l73 13z"/>
  <path class="fil23" d="M8884 5276c-94,-46 -208,-7 -254,87l-575 1177c-46,94 -7,208 87,254l1633 798c94,46 208,7 254,-87l575 -1177c46,-94 7,-208 -87,-254l-1633 -798z"/>
  <path class="fil24" d="M8892 7160l-172 -82 0 0 -442 -315c18,-7 36,-14 54,-21l559 419z"/>
  <path class="fil25" d="M9169 5256c-84,-63 -204,-45 -266,38l-785 1048c-63,84 -46,204 38,266l1455 1090c84,63 204,45 266,-38l785 -1048c63,-84 46,-204 -38,-266l-1455 -1089z"/>
  <path class="fil26" d="M9412 7552c0,0 0,-1 1,-2l2 2 -3 1z"/>
  <path class="fil27" d="M9415 7552l-2 -2c12,-25 127,-278 162,-321 14,-17 28,-22 41,-22 21,0 38,15 38,15l350 227 -589 103z"/>
  <path class="fil28" d="M10023 7463l-311 -226c0,0 -41,-39 -79,7 -37,46 -223,307 -223,307l612 -88z"/>
  <path class="fil29" d="M9152 6951c-6,0 -11,-2 -16,-5 -12,-9 -14,-25 -5,-37l603 -806c5,-7 13,-11 21,-11 6,0 11,2 16,5 12,9 14,25 5,37l-603 806c-5,7 -13,10 -21,10z"/>
  <path class="fil29" d="M9242 6652c-5,0 -11,-2 -16,-5 -12,-9 -14,-25 -5,-37l428 -568c5,-7 13,-10 21,-10 6,0 11,2 16,5 12,9 14,25 5,37l-428 568c-5,7 -13,11 -21,11z"/>
  <path class="fil29" d="M8972 6821c-6,0 -11,-2 -16,-5 -12,-9 -14,-25 -5,-37l506 -676c39,-23 78,-46 118,-70l-581 777c-5,7 -13,11 -21,11z"/>
  <path class="fil29" d="M9105 6433c-6,0 -11,-2 -16,-5 -12,-9 -14,-25 -5,-37l94 -125c38,-22 77,-45 117,-68l-169 225c-5,7 -13,11 -21,11z"/>
  <path class="fil29" d="M8941 6457c-6,0 -11,-2 -16,-5 -12,-9 -14,-25 -5,-37l2 -2c37,-21 76,-43 116,-66l-75 100c-5,7 -13,10 -21,10z"/>
  <path class="fil29" d="M8676 6605c-6,0 -11,-2 -16,-5 -12,-9 -14,-25 -5,-37l0 0c35,-20 73,-41 114,-64l-71 96c-5,7 -13,10 -21,10z"/>
  <path class="fil22" d="M10981 6912l-294 1414c-2,9 8,18 22,21l135 28c14,3 27,-2 29,-10l294 -1414c0,-1 0,-2 0,-4l-185 -38c-1,1 -1,2 -1,3z"/>
  <path class="fil17" d="M10789 8363l55 11c14,3 27,-2 29,-10l294 -1414c0,-1 0,-2 0,-4l-55 -11c0,1 0,2 0,3 0,0 0,1 0,1l-294 1414c-2,9 -15,13 -29,10z"/>
  <path class="fil30" d="M11047 6925l-294 1414c-2,9 1,17 6,18l48 10c5,1 10,-5 12,-14l294 -1414c0,0 0,-1 0,-1 0,-1 0,-2 0,-3l-65 -14c0,1 -1,2 -1,4z"/>
  <path class="fil15" d="M11168 6947c0,0 -18,-322 -29,-325 -10,-3 -156,286 -156,286l185 39z"/>
  <path class="fil25" d="M11153 6734c0,0 -8,-114 -14,-114 -7,0 -58,99 -58,99l72 15z"/>
  <path class="fil31" d="M10151 6728l832 1180c5,7 19,6 30,-2l113 -80c12,-8 17,-21 12,-28l-832 -1180c-1,-1 -2,-2 -3,-3l-154 109c0,1 1,2 2,3z"/>
  <path class="fil32" d="M11081 7859l46 -32c12,-8 17,-21 12,-28l-832 -1180c-1,-1 -2,-2 -3,-3l-46 32c1,1 1,1 2,2l1 1 832 1180c5,7 0,20 -12,28z"/>
  <path class="fil33" d="M10206 6690l832 1180c5,7 13,11 17,8l40 -28c4,-3 3,-11 -2,-18l-832 -1180 -1 -1c-1,-1 -1,-1 -2,-2l-54 38c1,1 1,2 2,3z"/>
  <path class="fil34" d="M10304 6616c0,0 -248,-207 -257,-201 -9,6 103,310 103,310l154 -109z"/>
  <path class="fil33" d="M10139 6481c0,0 -89,-72 -93,-68 -5,5 32,110 32,110l61 -42z"/>
  <path class="fil30" d="M13450 2948c-25,80 -964,974 -1859,1737 -928,791 -3258,2056 -3258,2056 -1609,643 -4215,951 -4215,951l-1652 -35 32 -2801 4287 100c698,-454 2504,-926 2996,-1119 80,-32 126,-49 126,-49 243,-208 556,-221 727,-316 233,-130 459,-222 656,-402 188,-171 473,-266 676,-393 301,-188 507,-377 625,-431 39,-18 61,-27 61,-27 833,23 799,729 799,729z"/>
  <path class="fil16" d="M12590 2246c-836,840 -3838,3423 -3838,3423l-33 -1115c80,-31 1245,-815 1245,-815 315,-166 787,-425 961,-526 338,-196 899,-514 1140,-656 241,-142 524,-310 524,-310z"/>
  <path class="fil17" d="M14634 6335l-926 -161c0,0 -2317,-562 -3220,-663 0,0 -2188,-275 -2946,-340 0,0 -4204,-193 -4817,-239l-359 -1740 1635 -816c0,0 1822,314 3689,674 1484,287 2996,603 3643,815l1688 561c182,60 971,350 1174,473 131,79 289,66 458,312 0,0 334,190 549,542 0,0 181,-45 188,78 8,123 -319,505 -756,505z"/>
  <path class="fil16" d="M15600 1251c0,704 -725,1005 -1099,1114 -165,48 -323,118 -468,208l-461 287c0,0 -35,-672 -776,-741l1278 -1069 281 -235c206,-180 544,-351 804,-266 122,40 239,112 323,238l0 0c71,109 118,259 118,464z"/>
  <path class="fil35" d="M1778 7836c0,0 872,168 911,-34 434,-2267 47,-5563 47,-5563l-1134 87 177 5510z"/>
  <path class="fil22" d="M14653 5211c-2000,-1063 -7039,-1882 -7039,-1882l75 -279c1484,287 2996,603 3643,815l1688 561c182,60 954,313 1166,420 190,96 421,270 466,365z"/>
  <path class="fil36" d="M3148 7298l0 -4530c0,-133 107,-240 240,-240l3021 0c133,0 240,107 240,240l0 4530c0,133 -107,240 -240,240l-3021 0c-133,0 -240,-107 -240,-240z"/>
  <path class="fil37" d="M4635 7125l0 -4204c0,-50 41,-91 91,-91l1614 0c50,0 91,41 91,91l0 4204c0,50 -41,91 -91,91l-1614 0c-50,0 -91,-41 -91,-91z"/>
  <path class="fil10" d="M3297 5793l0 -1509c0,-34 28,-62 62,-62l1062 0c34,0 62,28 62,62l0 1509c0,34 -28,62 -62,62l-1062 0c-34,0 -62,-28 -62,-62z"/>
  <path class="fil0" d="M6175 3139l0 -181c0,-25 20,-46 46,-46l75 0c25,0 46,20 46,46l0 181c0,25 -20,46 -46,46l-75 0c-25,0 -46,-20 -46,-46z"/>
  <path class="fil0" d="M6175 3444l0 -181c0,-25 20,-46 46,-46l75 0c25,0 46,20 46,46l0 181c0,25 -20,46 -46,46l-75 0c-25,0 -46,-20 -46,-46z"/>
  <path class="fil0" d="M6175 3749l0 -181c0,-25 20,-46 46,-46l75 0c25,0 46,20 46,46l0 181c0,25 -20,46 -46,46l-75 0c-25,0 -46,-20 -46,-46z"/>
  <path class="fil0" d="M6175 4053l0 -181c0,-25 20,-46 46,-46l75 0c25,0 46,20 46,46l0 181c0,25 -20,46 -46,46l-75 0c-25,0 -46,-20 -46,-46z"/>
  <path class="fil0" d="M6175 4358l0 -181c0,-25 20,-46 46,-46l75 0c25,0 46,20 46,46l0 181c0,25 -20,46 -46,46l-75 0c-25,0 -46,-20 -46,-46z"/>
  <path class="fil0" d="M6175 4663l0 -181c0,-25 20,-46 46,-46l75 0c25,0 46,20 46,46l0 181c0,25 -20,46 -46,46l-75 0c-25,0 -46,-20 -46,-46z"/>
  <path class="fil0" d="M6175 4968l0 -181c0,-25 20,-46 46,-46l75 0c25,0 46,20 46,46l0 181c0,25 -20,46 -46,46l-75 0c-25,0 -46,-20 -46,-46z"/>
  <path class="fil0" d="M6175 5273l0 -181c0,-25 20,-46 46,-46l75 0c25,0 46,20 46,46l0 181c0,25 -20,46 -46,46l-75 0c-25,0 -46,-20 -46,-46z"/>
  <path class="fil0" d="M6175 5578l0 -181c0,-25 20,-46 46,-46l75 0c25,0 46,20 46,46l0 181c0,25 -20,46 -46,46l-75 0c-25,0 -46,-20 -46,-46z"/>
  <path class="fil0" d="M6175 5883l0 -181c0,-25 20,-46 46,-46l75 0c25,0 46,20 46,46l0 181c0,25 -20,46 -46,46l-75 0c-25,0 -46,-20 -46,-46z"/>
  <path class="fil0" d="M6175 6187l0 -181c0,-25 20,-46 46,-46l75 0c25,0 46,20 46,46l0 181c0,25 -20,46 -46,46l-75 0c-25,0 -46,-20 -46,-46z"/>
  <path class="fil0" d="M6175 6492l0 -181c0,-25 20,-46 46,-46l75 0c25,0 46,20 46,46l0 181c0,25 -20,46 -46,46l-75 0c-25,0 -46,-20 -46,-46z"/>
  <path class="fil0" d="M6175 6797l0 -181c0,-25 20,-46 46,-46l75 0c25,0 46,20 46,46l0 181c0,25 -20,46 -46,46l-75 0c-25,0 -46,-20 -46,-46z"/>
  <path class="fil0" d="M6175 7102l0 -181c0,-25 20,-46 46,-46l75 0c25,0 46,20 46,46l0 181c0,25 -20,46 -46,46l-75 0c-25,0 -46,-20 -46,-46z"/>
  <path class="fil0" d="M5904 3159l0 -226c0,-6 5,-10 10,-10l226 0c6,0 10,5 10,10l0 226c0,6 -5,10 -10,10l-226 0c-6,0 -10,-5 -10,-10z"/>
  <path class="fil0" d="M5618 3606l0 -226c0,-6 5,-10 10,-10l226 0c6,0 10,5 10,10l0 226c0,6 -5,10 -10,10l-226 0c-6,0 -10,-5 -10,-10z"/>
  <path class="fil0" d="M5332 3672l0 -226c0,-6 5,-10 10,-10l226 0c6,0 10,5 10,10l0 226c0,6 -5,10 -10,10l-226 0c-6,0 -10,-5 -10,-10z"/>
  <path class="fil0" d="M5047 3825l0 -226c0,-6 5,-10 10,-10l226 0c6,0 10,5 10,10l0 226c0,6 -5,10 -10,10l-226 0c-6,0 -10,-5 -10,-10z"/>
  <path class="fil0" d="M4730 3158l0 -225c0,-6 5,-11 11,-11l256 0c6,0 11,5 11,11l0 225c0,6 -5,11 -11,11l-256 0c-6,0 -11,-5 -11,-11z"/>
  <path class="fil0" d="M4730 3458l0 -225c0,-6 5,-11 11,-11l256 0c6,0 11,5 11,11l0 225c0,6 -5,11 -11,11l-256 0c-6,0 -11,-5 -11,-11z"/>
  <path class="fil0" d="M4730 3750l0 -225c0,-6 5,-11 11,-11l256 0c6,0 11,5 11,11l0 225c0,6 -5,11 -11,11l-256 0c-6,0 -11,-5 -11,-11z"/>
  <path class="fil0" d="M4730 4117l0 -297c0,-7 6,-12 12,-12l253 0c7,0 12,6 12,12l0 297c0,7 -6,12 -12,12l-253 0c-7,0 -12,-6 -12,-12z"/>
  <path class="fil0" d="M4730 5944l0 -297c0,-7 6,-12 12,-12l253 0c7,0 12,6 12,12l0 297c0,7 -6,12 -12,12l-253 0c-7,0 -12,-6 -12,-12z"/>
  <path class="fil0" d="M4730 6244l0 -222c0,-6 5,-11 11,-11l257 0c6,0 11,5 11,11l0 222c0,6 -5,11 -11,11l-257 0c-6,0 -11,-5 -11,-11z"/>
  <path class="fil0" d="M4730 5573l0 -1370c0,-14 12,-26 26,-26l226 0c14,0 26,12 26,26l0 1370c0,14 -12,26 -26,26l-226 0c-14,0 -26,-12 -26,-26z"/>
  <path class="fil0" d="M5047 4119l0 -226c0,-6 5,-10 10,-10l226 0c6,0 10,5 10,10l0 226c0,6 -5,10 -10,10l-226 0c-6,0 -10,-5 -10,-10z"/>
  <path class="fil0" d="M5047 4413l0 -226c0,-6 5,-10 10,-10l226 0c6,0 10,5 10,10l0 226c0,6 -5,10 -10,10l-226 0c-6,0 -10,-5 -10,-10z"/>
  <path class="fil0" d="M5047 4707l0 -226c0,-6 5,-10 10,-10l226 0c6,0 10,5 10,10l0 226c0,6 -5,10 -10,10l-226 0c-6,0 -10,-5 -10,-10z"/>
  <path class="fil0" d="M5047 5001l0 -226c0,-6 5,-10 10,-10l226 0c6,0 10,5 10,10l0 226c0,6 -5,10 -10,10l-226 0c-6,0 -10,-5 -10,-10z"/>
  <path class="fil0" d="M5047 5295l0 -226c0,-6 5,-10 10,-10l226 0c6,0 10,5 10,10l0 226c0,6 -5,10 -10,10l-226 0c-6,0 -10,-5 -10,-10z"/>
  <path class="fil0" d="M5047 5588l0 -226c0,-6 5,-10 10,-10l226 0c6,0 10,5 10,10l0 226c0,6 -5,10 -10,10l-226 0c-6,0 -10,-5 -10,-10z"/>
  <path class="fil0" d="M5047 5882l0 -226c0,-6 5,-10 10,-10l226 0c6,0 10,5 10,10l0 226c0,6 -5,10 -10,10l-226 0c-6,0 -10,-5 -10,-10z"/>
  <path class="fil0" d="M5047 6176l0 -226c0,-6 5,-10 10,-10l226 0c6,0 10,5 10,10l0 226c0,6 -5,10 -10,10l-226 0c-6,0 -10,-5 -10,-10z"/>
  <path class="fil0" d="M4725 6509l0 -172c0,-22 18,-40 40,-40l64 0c22,0 40,18 40,40l0 172c0,22 -18,40 -40,40l-64 0c-22,0 -40,-18 -40,-40z"/>
  <path class="fil0" d="M4725 6804l0 -172c0,-22 18,-40 40,-40l64 0c22,0 40,18 40,40l0 172c0,22 -18,40 -40,40l-64 0c-22,0 -40,-18 -40,-40z"/>
  <path class="fil0" d="M4886 6804l0 -172c0,-22 18,-40 40,-40l64 0c22,0 40,18 40,40l0 172c0,22 -18,40 -40,40l-64 0c-22,0 -40,-18 -40,-40z"/>
  <path class="fil0" d="M4725 7099l0 -172c0,-22 18,-40 40,-40l64 0c22,0 40,18 40,40l0 172c0,22 -18,40 -40,40l-64 0c-22,0 -40,-18 -40,-40z"/>
  <path class="fil0" d="M5332 3968l0 -226c0,-6 5,-10 10,-10l226 0c6,0 10,5 10,10l0 226c0,6 -5,10 -10,10l-226 0c-6,0 -10,-5 -10,-10z"/>
  <path class="fil0" d="M5332 4265l0 -226c0,-6 5,-10 10,-10l226 0c6,0 10,5 10,10l0 226c0,6 -5,10 -10,10l-226 0c-6,0 -10,-5 -10,-10z"/>
  <path class="fil0" d="M5332 4562l0 -226c0,-6 5,-10 10,-10l226 0c6,0 10,5 10,10l0 226c0,6 -5,10 -10,10l-226 0c-6,0 -10,-5 -10,-10z"/>
  <path class="fil0" d="M5332 4856l0 -226c0,-6 5,-10 10,-10l226 0c6,0 10,5 10,10l0 226c0,6 -5,10 -10,10l-226 0c-6,0 -10,-5 -10,-10z"/>
  <path class="fil0" d="M5332 5153l0 -226c0,-6 5,-10 10,-10l226 0c6,0 10,5 10,10l0 226c0,6 -5,10 -10,10l-226 0c-6,0 -10,-5 -10,-10z"/>
  <path class="fil0" d="M5332 5437l0 -226c0,-6 5,-10 10,-10l226 0c6,0 10,5 10,10l0 226c0,6 -5,10 -10,10l-226 0c-6,0 -10,-5 -10,-10z"/>
  <path class="fil0" d="M5332 5731l0 -226c0,-6 5,-10 10,-10l226 0c6,0 10,5 10,10l0 226c0,6 -5,10 -10,10l-226 0c-6,0 -10,-5 -10,-10z"/>
  <path class="fil0" d="M5332 6024l0 -226c0,-6 5,-10 10,-10l226 0c6,0 10,5 10,10l0 226c0,6 -5,10 -10,10l-226 0c-6,0 -10,-5 -10,-10z"/>
  <path class="fil0" d="M5332 6316l0 -226c0,-6 5,-10 10,-10l226 0c6,0 10,5 10,10l0 226c0,6 -5,10 -10,10l-226 0c-6,0 -10,-5 -10,-10z"/>
  <path class="fil0" d="M5332 6608l0 -226c0,-6 5,-10 10,-10l226 0c6,0 10,5 10,10l0 226c0,6 -5,10 -10,10l-226 0c-6,0 -10,-5 -10,-10z"/>
  <path class="fil0" d="M5047 6467l0 -226c0,-6 5,-10 10,-10l226 0c6,0 10,5 10,10l0 226c0,6 -5,10 -10,10l-226 0c-6,0 -10,-5 -10,-10z"/>
  <path class="fil0" d="M5332 7126l0 -437c0,-8 6,-14 14,-14l219 0c8,0 14,6 14,14l0 437c0,8 -6,14 -14,14l-219 0c-8,0 -14,-6 -14,-14z"/>
  <path class="fil0" d="M5047 7124l0 -586c0,-9 7,-16 16,-16l214 0c9,0 16,7 16,16l0 586c0,9 -7,16 -16,16l-214 0c-9,0 -16,-7 -16,-16z"/>
  <path class="fil0" d="M5332 3378l0 -442c0,-8 6,-14 14,-14l219 0c8,0 14,6 14,14l0 442c0,8 -6,14 -14,14l-219 0c-8,0 -14,-6 -14,-14z"/>
  <path class="fil0" d="M5047 3528l0 -594c0,-9 7,-16 16,-16l214 0c9,0 16,7 16,16l0 594c0,9 -7,16 -16,16l-214 0c-9,0 -16,-7 -16,-16z"/>
  <path class="fil0" d="M5618 3901l0 -226c0,-6 5,-10 10,-10l226 0c6,0 10,5 10,10l0 226c0,6 -5,10 -10,10l-226 0c-6,0 -10,-5 -10,-10z"/>
  <path class="fil0" d="M5618 4194l0 -226c0,-6 5,-10 10,-10l226 0c6,0 10,5 10,10l0 226c0,6 -5,10 -10,10l-226 0c-6,0 -10,-5 -10,-10z"/>
  <path class="fil0" d="M5618 4489l0 -226c0,-6 5,-10 10,-10l226 0c6,0 10,5 10,10l0 226c0,6 -5,10 -10,10l-226 0c-6,0 -10,-5 -10,-10z"/>
  <path class="fil0" d="M5618 4784l0 -226c0,-6 5,-10 10,-10l226 0c6,0 10,5 10,10l0 226c0,6 -5,10 -10,10l-226 0c-6,0 -10,-5 -10,-10z"/>
  <path class="fil0" d="M5618 5078l0 -226c0,-6 5,-10 10,-10l226 0c6,0 10,5 10,10l0 226c0,6 -5,10 -10,10l-226 0c-6,0 -10,-5 -10,-10z"/>
  <path class="fil0" d="M5618 5364l0 -226c0,-6 5,-10 10,-10l226 0c6,0 10,5 10,10l0 226c0,6 -5,10 -10,10l-226 0c-6,0 -10,-5 -10,-10z"/>
  <path class="fil0" d="M5618 5662l0 -226c0,-6 5,-10 10,-10l226 0c6,0 10,5 10,10l0 226c0,6 -5,10 -10,10l-226 0c-6,0 -10,-5 -10,-10z"/>
  <path class="fil0" d="M5618 5955l0 -226c0,-6 5,-10 10,-10l226 0c6,0 10,5 10,10l0 226c0,6 -5,10 -10,10l-226 0c-6,0 -10,-5 -10,-10z"/>
  <path class="fil0" d="M5618 6244l0 -226c0,-6 5,-10 10,-10l226 0c6,0 10,5 10,10l0 226c0,6 -5,10 -10,10l-226 0c-6,0 -10,-5 -10,-10z"/>
  <path class="fil0" d="M5618 6546l0 -226c0,-6 5,-10 10,-10l226 0c6,0 10,5 10,10l0 226c0,6 -5,10 -10,10l-226 0c-6,0 -10,-5 -10,-10z"/>
  <path class="fil0" d="M5618 6833l0 -226c0,-6 5,-10 10,-10l226 0c6,0 10,5 10,10l0 226c0,6 -5,10 -10,10l-226 0c-6,0 -10,-5 -10,-10z"/>
  <path class="fil0" d="M5618 7130l0 -226c0,-6 5,-10 10,-10l226 0c6,0 10,5 10,10l0 226c0,6 -5,10 -10,10l-226 0c-6,0 -10,-5 -10,-10z"/>
  <path class="fil0" d="M5904 3458l0 -226c0,-6 5,-10 10,-10l226 0c6,0 10,5 10,10l0 226c0,6 -5,10 -10,10l-226 0c-6,0 -10,-5 -10,-10z"/>
  <path class="fil0" d="M5904 3748l0 -226c0,-6 5,-10 10,-10l226 0c6,0 10,5 10,10l0 226c0,6 -5,10 -10,10l-226 0c-6,0 -10,-5 -10,-10z"/>
  <path class="fil0" d="M5904 4045l0 -226c0,-6 5,-10 10,-10l226 0c6,0 10,5 10,10l0 226c0,6 -5,10 -10,10l-226 0c-6,0 -10,-5 -10,-10z"/>
  <path class="fil0" d="M5904 4336l0 -226c0,-6 5,-10 10,-10l226 0c6,0 10,5 10,10l0 226c0,6 -5,10 -10,10l-226 0c-6,0 -10,-5 -10,-10z"/>
  <path class="fil0" d="M5904 4635l0 -226c0,-6 5,-10 10,-10l226 0c6,0 10,5 10,10l0 226c0,6 -5,10 -10,10l-226 0c-6,0 -10,-5 -10,-10z"/>
  <path class="fil0" d="M5904 4922l0 -226c0,-6 5,-10 10,-10l226 0c6,0 10,5 10,10l0 226c0,6 -5,10 -10,10l-226 0c-6,0 -10,-5 -10,-10z"/>
  <path class="fil0" d="M5904 5221l0 -226c0,-6 5,-10 10,-10l226 0c6,0 10,5 10,10l0 226c0,6 -5,10 -10,10l-226 0c-6,0 -10,-5 -10,-10z"/>
  <path class="fil0" d="M5904 5511l0 -226c0,-6 5,-10 10,-10l226 0c6,0 10,5 10,10l0 226c0,6 -5,10 -10,10l-226 0c-6,0 -10,-5 -10,-10z"/>
  <path class="fil0" d="M5904 5809l0 -226c0,-6 5,-10 10,-10l226 0c6,0 10,5 10,10l0 226c0,6 -5,10 -10,10l-226 0c-6,0 -10,-5 -10,-10z"/>
  <path class="fil0" d="M5904 6107l0 -226c0,-6 5,-10 10,-10l226 0c6,0 10,5 10,10l0 226c0,6 -5,10 -10,10l-226 0c-6,0 -10,-5 -10,-10z"/>
  <path class="fil0" d="M5904 6401l0 -226c0,-6 5,-10 10,-10l226 0c6,0 10,5 10,10l0 226c0,6 -5,10 -10,10l-226 0c-6,0 -10,-5 -10,-10z"/>
  <path class="fil0" d="M5904 6684l0 -226c0,-6 5,-10 10,-10l226 0c6,0 10,5 10,10l0 226c0,6 -5,10 -10,10l-226 0c-6,0 -10,-5 -10,-10z"/>
  <path class="fil0" d="M5904 7108l0 -338c0,-16 13,-28 28,-28l190 0c16,0 28,13 28,28l0 338c0,16 -13,28 -28,28l-190 0c-16,0 -28,-13 -28,-28z"/>
  <path class="fil0" d="M5618 3289l0 -338c0,-16 13,-28 28,-28l190 0c16,0 28,13 28,28l0 338c0,16 -13,28 -28,28l-190 0c-16,0 -28,-13 -28,-28z"/>
  <path class="fil38" d="M6576 6985l0 -3918c0,-13 11,-24 24,-24l57 0c13,0 24,11 24,24l0 3918c0,13 -11,24 -24,24l-57 0c-13,0 -24,-11 -24,-24z"/>
  <path class="fil36" d="M6681 7399l0 -4746c0,-44 27,-85 66,-100l1933 -746c20,-8 39,5 39,26l0 6375c0,24 -22,38 -45,30l-1923 -734c-41,-16 -70,-59 -70,-105z"/>
  <path class="fil38" d="M8722 8251l-3 -6449c0,0 44,34 64,56 20,22 51,78 51,78l0 6165c0,0 -40,63 -51,78 -12,15 -62,73 -62,73z"/>
  <polygon class="fil39" points="6891,7390 6891,2678 8606,2062 8606,8003 "/>
  <path class="fil10" d="M6576 6985l0 -3918c0,-13 11,-24 24,-24l15 0 0 3966 -15 0c-13,0 -24,-11 -24,-24z"/>
  <path class="fil15" d="M2 8597l0 -7330 785 117 1023 408c0,12 204,342 384,951 165,556 309,1343 261,2333 0,0 68,1029 -519,2906l-1935 616z"/>
  <path class="fil40" d="M4042 7690l0 0 -999 -21 24 85 83 -26c8,23 94,56 94,56 43,18 89,28 131,32 19,2 38,3 56,3 42,0 83,-4 124,-13l223 -46 264 -69z"/>
  <path class="fil41" d="M4042 7690l-999 -21 -191 -692 64 -17c0,0 -6,-180 70,-254 0,0 68,-70 162,-168l0 759c0,133 107,240 240,240l1235 0 -581 152z"/>
  <path class="fil42" d="M4623 7538l-1235 0c-133,0 -240,-107 -240,-240l0 -759c189,-195 484,-498 557,-562 0,0 20,-4 46,-4 60,0 155,23 135,175 0,0 9,40 -37,96l-228 254 1015 -300 0 308 -701 239 701 -194 0 339 -533 166 533 -134 0 202c0,40 26,73 61,86l-556 182 546 -142c21,-6 44,-10 66,-10 37,0 73,11 95,40 12,16 21,34 24,56 0,0 29,119 -119,167l-130 34z"/>
  <path class="fil38" d="M4696 7210c-36,-12 -61,-46 -61,-86l0 -202 105 -27c-9,7 -15,19 -15,31l0 172c0,22 18,40 40,40l64 0c22,0 40,-18 40,-40l0 -172c0,-22 -18,-40 -40,-40l-55 0 62 -15c33,-9 92,-23 145,-23 24,0 47,3 66,10l0 223c-5,3 -9,7 -15,10 -18,12 -74,33 -95,39l-241 79zm-61 -320l0 -339 93 -26c6,14 20,24 36,24l64 0c22,0 40,-18 40,-40l0 -23c31,-9 75,-18 114,-18 27,0 52,4 69,16 13,9 26,21 36,37l-25 0c-9,0 -16,7 -16,16l0 211c-5,4 -11,8 -17,12l0 -128c0,-22 -18,-40 -40,-40l-64 0c-22,0 -40,18 -40,40l0 172c0,3 0,5 1,8l-21 6c2,-4 3,-9 3,-14l0 -172c0,-22 -18,-40 -40,-40l-64 0c-22,0 -40,18 -40,40l0 172c0,22 18,40 40,40l20 0 -149 47zm0 -384l0 -308 24 -7c19,-5 38,-8 57,-8 5,0 9,0 13,0l0 61c0,6 5,11 11,11l116 0c8,14 15,30 20,48 0,0 9,31 -8,73l0 -39c0,-22 -18,-40 -40,-40l-64 0c-22,0 -40,18 -40,40l0 138 -90 31z"/>
  <path class="fil43" d="M4856 6255l-116 0c-6,0 -11,-5 -11,-11l0 -61c11,1 22,2 33,5 33,8 70,27 94,67z"/>
  <path class="fil43" d="M4829 6549l-64 0c-16,0 -30,-10 -36,-24l132 -36c3,-1 5,-2 8,-2l0 23c0,22 -18,40 -40,40zm-104 -74l0 -138c0,-22 18,-40 40,-40l64 0c22,0 40,18 40,40l0 39c-2,6 -5,12 -9,19 -24,44 -66,59 -114,73l-21 7z"/>
  <path class="fil43" d="M4785 6844l-20 0c-22,0 -40,-18 -40,-40l0 -172c0,-22 18,-40 40,-40l64 0c22,0 40,18 40,40l0 172c0,5 -1,10 -3,14l-81 25z"/>
  <path class="fil43" d="M4887 6812c0,-3 -1,-5 -1,-8l0 -172c0,-22 18,-40 40,-40l64 0c22,0 40,18 40,40l0 128c-12,7 -25,14 -41,20l-102 32z"/>
  <path class="fil43" d="M4829 7139l-64 0c-22,0 -40,-18 -40,-40l0 -172c0,-13 6,-24 15,-31l33 -8 55 0c22,0 40,18 40,40l0 172c0,22 -18,40 -40,40z"/>
  <path class="fil43" d="M5047 7082l0 -223c13,5 25,13 33,24 12,16 18,39 23,62 0,0 33,71 -55,137zm0 -334l0 -211c0,-9 7,-16 16,-16l25 0c20,29 34,67 34,106 0,0 -5,69 -74,121z"/>
  <path class="fil44" d="M2857 7010l64 -17c0,0 -6,-180 70,-254 0,0 609,-634 719,-729 0,0 210,-48 181,170 0,0 9,40 -37,96l-228 254 1038 -307c34,-10 69,-11 103,-3 44,11 95,41 114,115 0,0 12,40 -16,92 -24,44 -66,59 -114,73l-812 277 927 -256c51,-15 146,-34 191,-4 38,25 70,83 70,143 0,0 -8,104 -133,153l-887 276 733 -185c59,-16 201,-48 244,12 12,16 18,39 23,62 0,0 37,78 -70,147 -18,12 -74,33 -95,39l-797 261 546 -142c57,-16 125,-17 161,30 12,16 21,34 24,56 0,0 29,119 -119,167l-975 256 -223 46c-59,12 -120,16 -180,10 -42,-4 -88,-13 -131,-32 0,0 -86,-33 -94,-56l-83 26 -215 -777z"/>
  <polygon class="fil0" points="3060,7907 3169,7874 2866,6882 2757,6915 "/>
  <path class="fil15" d="M3082 7909l-141 35c0,0 -1193,337 -2190,586 -324,81 -599,145 -751,173l0 -1322c497,-22 2094,-358 2094,-358l662 -168 72 229 254 825z"/>
  <path class="fil0" d="M2669 7889c16,19 13,47 -5,62 -19,16 -47,13 -62,-5 -16,-19 -13,-47 5,-62 19,-16 47,-13 62,5z"/>
  <path class="fil0" d="M2531 7930c16,19 13,47 -5,62 -19,16 -47,13 -62,-5 -16,-19 -13,-47 5,-62 19,-16 47,-13 62,5z"/>
  <path class="fil0" d="M2391 7967c16,19 13,47 -5,62 -19,16 -47,13 -62,-5 -16,-19 -13,-47 5,-62 19,-16 47,-13 62,5z"/>
  <path class="fil45" d="M4599 6313l49 166c4,14 19,22 33,18l90 -29c0,0 70,-27 55,-122 0,0 -16,-79 -93,-93 0,0 -31,-4 -87,18l-29 8c-14,4 -22,19 -18,33z"/>
  <path class="fil45" d="M4844 6606l47 159c4,14 18,21 32,17l87 -28c0,0 67,-26 53,-116 0,0 -15,-75 -89,-89 0,0 -30,-3 -84,17l-28 8c-13,4 -21,18 -17,31z"/>
  <path class="fil45" d="M4873 6963l34 139c3,12 15,19 27,16l76 -20c0,0 59,-20 50,-98 0,0 -10,-65 -73,-80 0,0 -26,-4 -73,12l-24 6c-12,3 -19,15 -16,26z"/>
  <path class="fil45" d="M4648 7358l34 136c3,12 15,19 26,15l74 -20c0,0 58,-19 49,-96 0,0 -10,-64 -72,-78 0,0 -25,-4 -71,11l-24 6c-11,3 -19,14 -16,26z"/>
  <path class="fil45" d="M3647 6130l79 71c7,6 18,4 25,-5l46 -57c0,0 34,-47 -3,-93 0,0 -33,-37 -84,-10 0,0 -20,12 -47,50l-15 18c-7,9 -8,21 -1,27z"/>
  <path class="fil40" d="M5214 2528l-342 0c-534,-95 -872,-153 -872,-153l-307 153 -218 0 75 -272 78 25c7,-21 89,-53 89,-53 40,-17 84,-26 124,-30 18,-2 36,-3 53,-3 39,0 79,4 117,12l211 44 923 242c29,9 51,22 67,35z"/>
  <path class="fil46" d="M4872 2528l-1179 0 307 -153c0,0 338,58 872,153z"/>
  <path class="fil42" d="M4197 3944c-25,0 -43,-4 -43,-4 -104,-91 -681,-691 -681,-691 -71,-70 -66,-241 -66,-241l-61 -16 128 -464 1739 0c63,52 45,123 45,123 -3,21 -11,38 -23,53 -21,28 -55,38 -90,38 -21,0 -42,-4 -63,-9l-517 -134 704 231 -544 0c-50,0 -91,41 -91,91l0 23 -105 -26 105 33 0 335 -264 -73 264 90 0 310 -561 -166 216 241c44,54 35,91 35,91 19,144 -71,166 -128,166z"/>
  <path class="fil38" d="M5047 3734l-39 -12 0 -198c0,-6 -5,-11 -11,-11l-256 0c-6,0 -11,5 -11,11l0 115 -94 -28 0 -310 94 32 0 124c0,6 5,11 11,11l256 0c6,0 11,-5 11,-11l0 -29 39 13 0 85c0,9 7,16 16,16l186 0c9,17 14,32 16,45l-208 0c-6,0 -10,5 -10,10l0 135zm286 -262c-13,-1 -26,-4 -39,-6l0 -311 39 12 0 211c0,8 6,14 14,14l135 0c-7,16 -16,31 -26,44l-113 0c-6,0 -10,5 -10,10l0 26zm-286 -73l-39 -11 0 -155c0,-6 -5,-11 -11,-11l-256 0c-6,0 -11,5 -11,11l0 78 -94 -26 0 -335 94 29 0 179c0,6 5,11 11,11l256 0c6,0 11,-5 11,-11l0 -92 39 12 0 321zm286 -286c-13,-1 -26,-3 -39,-5l0 -174c0,-9 -7,-16 -16,-16l-214 0c-9,0 -16,7 -16,16l0 114 -39 -10 0 -105c0,-6 -5,-11 -11,-11l-256 0c-6,0 -11,5 -11,11l0 35 -94 -24 0 -23c0,-50 41,-91 91,-91l544 0 51 17c20,6 72,26 90,37 20,13 34,26 45,39l-110 0c-8,0 -14,6 -14,14l0 176z"/>
  <path class="fil43" d="M5364 3474c-10,0 -21,-1 -32,-2l0 -26c0,-6 5,-10 10,-10l113 0c-8,9 -17,17 -26,23 -16,11 -40,15 -65,15z"/>
  <path class="fil43" d="M5112 3745c-18,0 -37,-3 -54,-8l-12 -3 0 -135c0,-6 5,-10 10,-10l208 0c4,25 0,42 0,42 -18,71 -66,99 -108,109 -14,4 -29,5 -44,5z"/>
  <path class="fil43" d="M4997 3169l-256 0c-6,0 -11,-5 -11,-11l0 -179 278 87 0 92c0,6 -5,11 -11,11zm11 -131l-278 -70 0 -35c0,-6 5,-11 11,-11l256 0c6,0 11,5 11,11l0 105z"/>
  <path class="fil43" d="M4997 3469l-256 0c-6,0 -11,-5 -11,-11l0 -124 278 95 0 29c0,6 -5,11 -11,11zm11 -81l-278 -77 0 -78c0,-6 5,-11 11,-11l256 0c6,0 11,5 11,11l0 155z"/>
  <path class="fil43" d="M5008 3722l-278 -82 0 -115c0,-6 5,-11 11,-11l256 0c6,0 11,5 11,11l0 198z"/>
  <path class="fil43" d="M5482 3392l-135 0c-8,0 -14,-6 -14,-14l0 -211 38 12c118,46 126,145 126,145 0,24 -5,47 -14,68zm-119 -278c-10,0 -20,-1 -30,-1l0 -176c0,-8 6,-14 14,-14l110 0c43,53 21,100 21,100 -4,21 -10,44 -21,59 -18,25 -54,33 -93,33z"/>
  <path class="fil43" d="M5249 3544l-186 0c-9,0 -16,-7 -16,-16l0 -85 94 32c46,14 85,28 108,69 0,0 0,0 0,0zm45 -78c-17,-3 -32,-7 -44,-11l-202 -56 0 -321 247 77 0 311zm0 -358c-27,-5 -51,-11 -68,-15l-178 -45 0 -114c0,-9 7,-16 16,-16l214 0c9,0 16,7 16,16l0 174z"/>
  <path class="fil44" d="M3374 2977l61 16c0,0 -5,170 66,241 0,0 577,600 681,691 0,0 199,45 171,-161 0,0 9,-37 -35,-91l-216 -241 983 291c32,9 66,11 98,3 42,-11 90,-39 108,-109 0,0 11,-38 -15,-87 -23,-42 -63,-56 -108,-69l-769 -262 878 243c49,14 139,32 181,4 36,-24 66,-78 66,-135 0,0 -7,-98 -126,-145l-840 -262 694 175c56,15 190,45 231,-11 11,-15 17,-37 21,-59 0,0 35,-74 -66,-139 -17,-11 -70,-31 -90,-37l-755 -248 517 134c54,16 119,16 153,-29 11,-15 20,-32 23,-53 0,0 28,-113 -113,-158l-923 -242 -211 -44c-56,-12 -114,-15 -171,-10 -40,4 -84,13 -124,30 0,0 -81,32 -89,53l-78 -25 -204 736z"/>
  <polygon class="fil0" points="3532,2109 3642,2139 3363,3138 3253,3108 "/>
  <path class="fil15" d="M3244 3118l-233 -59 -795 -202 0 -2c-39,-9 -81,-18 -122,-27 -713,-160 -1597,-337 -2094,-358l0 -1376c152,29 435,88 758,173 599,157 1342,411 1907,573l903 229 -324 1050z"/>
  <path class="fil0" d="M3204 2207c16,-19 13,-47 -5,-62 -19,-16 -47,-13 -62,5 -16,19 -13,47 5,62 19,16 47,13 62,-5z"/>
  <path class="fil0" d="M3067 2166c16,-19 13,-47 -5,-62 -19,-16 -47,-13 -62,5 -16,19 -13,47 5,62 19,16 47,13 62,-5z"/>
  <path class="fil0" d="M2926 2129c16,-19 13,-47 -5,-62 -19,-16 -47,-13 -62,5 -16,19 -13,47 5,62 19,16 47,13 62,-5z"/>
  <path class="fil45" d="M5023 3637l47 -158c4,-13 18,-21 32,-17l86 27c0,0 67,26 52,115 0,0 -15,74 -88,88 0,0 -30,3 -83,-17l-28 -8c-13,-4 -21,-18 -17,-31z"/>
  <path class="fil45" d="M5255 3359l45 -151c4,-13 17,-20 30,-16l82 26c0,0 64,25 50,110 0,0 -14,71 -85,84 0,0 -28,3 -79,-16l-26 -8c-13,-4 -20,-17 -16,-30z"/>
  <path class="fil45" d="M5283 3021l32 -131c3,-11 14,-18 25,-15l72 19c0,0 56,19 47,93 0,0 -10,62 -69,76 0,0 -24,4 -69,-11l-23 -6c-11,-3 -18,-14 -15,-25z"/>
  <path class="fil45" d="M5070 2647l32 -129c3,-11 14,-18 25,-15l70 19c0,0 55,18 46,91 0,0 -9,60 -68,74 0,0 -24,4 -67,-11l-23 -5c-11,-3 -18,-14 -15,-24z"/>
  <path class="fil45" d="M4122 3810l74 -67c6,-6 17,-3 24,5l44 54c0,0 33,45 -2,88 0,0 -31,35 -79,9 0,0 -19,-12 -45,-47l-14 -17c-7,-8 -7,-20 -1,-25z"/>
  <path class="fil14" d="M3244 3118c-48,-17 -128,-37 -233,-59l-795 -202 0 -2c-39,-9 -80,-18 -122,-27 -713,-160 -1597,-337 -2094,-358l0 -452 2387 590c0,0 233,66 533,112 298,45 511,-208 511,-208l-187 607z"/>
  <path class="fil14" d="M2904 7328c0,0 -133,-95 -323,-118 -190,-23 -415,28 -415,28l-2165 505 0 -362c497,-22 2093,-358 2093,-358l662 -168 148 473z"/>
  <path class="fil47" d="M12590 2246l172 -168c69,-67 173,-83 258,-40 180,90 475,276 625,574 53,106 19,235 -79,302l-168 114c0,0 -125,-483 -808,-782z"/>
  <path class="fil16" d="M17721 5473c-6,86 -31,167 -67,239 -1,2 -2,4 -3,6 -124,244 -483,362 -756,380l-113 10 -29 3 -1882 168c475,-573 24,-1073 24,-1073l529 -124c167,-39 328,-101 478,-184 341,-187 1067,-486 1564,11 12,12 23,24 34,36 95,102 155,202 188,296 28,81 38,158 33,231z"/>
  <path class="fil47" d="M14634 6335l240 -3c96,-1 181,-63 211,-154 63,-191 141,-531 36,-848 -37,-113 -153,-180 -269,-157l-203 33c0,0 247,429 -16,1130z"/>
  <path class="fil47" d="M14709 1929c0,0 -110,-152 -241,-297 -91,-101 -272,-268 -272,-268 -17,-19 -20,-44 -7,-56l12 -11c13,-12 36,-4 55,12 0,0 120,101 272,268 163,179 241,296 241,296 17,26 20,44 7,56l-12 11c-13,12 -38,6 -55,-12z"/>
  <path class="fil47" d="M14862 1795c0,0 -110,-152 -241,-297 -91,-101 -272,-268 -272,-268 -17,-19 -20,-44 -7,-56l12 -11c13,-12 36,-4 55,12 0,0 120,101 272,268 163,179 241,296 241,296 17,26 20,44 7,56l-12 11c-13,12 -38,6 -55,-12z"/>
  <path class="fil47" d="M15021 1667c0,0 -110,-152 -241,-297 -91,-101 -272,-268 -272,-268 -17,-19 -20,-44 -7,-56l12 -11c13,-12 36,-4 55,12 0,0 120,101 272,268 163,179 241,296 241,296 17,26 20,44 7,56l-12 11c-13,12 -38,6 -55,-12z"/>
  <path class="fil47" d="M16512 5858c0,0 -1,-188 -24,-381 -16,-135 -66,-376 -66,-376 -3,-25 9,-48 27,-50l16 -2c18,-2 31,18 38,42 0,0 39,152 66,376 29,241 24,381 24,381 -1,32 -9,48 -27,50l-16 2c-18,2 -35,-17 -38,-42z"/>
  <path class="fil47" d="M16715 5838c0,0 -1,-188 -24,-381 -16,-135 -66,-376 -66,-376 -3,-25 9,-48 27,-50l16 -2c18,-2 31,18 38,42 0,0 39,152 66,376 29,241 24,381 24,381 -1,31 -9,48 -27,50l-16 2c-18,2 -35,-17 -38,-42z"/>
  <path class="fil47" d="M16919 5825c0,0 -1,-188 -24,-381 -16,-135 -66,-376 -66,-376 -3,-25 9,-48 27,-50l16 -2c18,-2 31,18 38,42 0,0 39,152 66,376 29,241 24,381 24,381 -1,31 -9,48 -27,50l-16 2c-18,2 -35,-17 -38,-42z"/>
 </g>
</svg>
