<?xml version="1.0" encoding="utf-8"?>
<!-- Generator: Adobe Illustrator 16.0.0, SVG Export Plug-In . SVG Version: 6.00 Build 0)  -->
<!DOCTYPE svg PUBLIC "-//W3C//DTD SVG 1.1//EN" "http://www.w3.org/Graphics/SVG/1.1/DTD/svg11.dtd">
<svg version="1.1" id="Layer_1" xmlns="http://www.w3.org/2000/svg" xmlns:xlink="http://www.w3.org/1999/xlink" x="0px" y="0px"
	 width="54px" height="54px" viewBox="0 0 54 54" enable-background="new 0 0 54 54" xml:space="preserve">
<g>
	<path fill="#fff" d="M47.023,14.58c-1.473,0.653-3.057,1.095-4.719,1.293c1.696-1.017,2.999-2.627,3.613-4.545
		c-1.588,0.941-3.347,1.625-5.218,1.993c-1.499-1.597-3.634-2.594-5.997-2.594c-4.538,0-8.217,3.678-8.217,8.216
		c0,0.644,0.073,1.271,0.213,1.872c-6.829-0.343-12.882-3.613-16.935-8.584c-0.708,1.213-1.113,2.624-1.113,4.13
		c0,2.851,1.451,5.365,3.655,6.839c-1.347-0.043-2.614-0.412-3.722-1.027c0,0.034,0,0.068,0,0.103c0,3.981,2.832,7.302,6.591,8.057
		c-0.689,0.188-1.415,0.288-2.165,0.288c-0.529,0-1.044-0.051-1.546-0.147c1.045,3.265,4.08,5.64,7.675,5.706
		c-2.812,2.204-6.355,3.518-10.204,3.518c-0.663,0-1.317-0.039-1.96-0.115c3.636,2.331,7.955,3.691,12.595,3.691
		c15.112,0,23.376-12.52,23.376-23.377c0-0.356-0.008-0.71-0.023-1.063C44.529,17.675,45.922,16.228,47.023,14.58"/>
</g>
</svg>
